<svg width="1728" height="1117" viewBox="0 0 1728 1117" fill="none" xmlns="http://www.w3.org/2000/svg">
<rect width="1728" height="1117" fill="#FFF6DD"/>
<path d="M737.552 879.708C737.552 881.377 735.88 882.731 733.82 882.731C731.76 882.731 730.087 881.377 730.087 879.708C730.087 878.04 731.76 876.685 733.82 876.685C735.88 876.705 737.552 878.04 737.552 879.708Z" fill="white"/>
<path d="M1038.46 208.252C1040.52 208.252 1042.19 206.898 1042.19 205.229C1042.19 203.559 1040.52 202.206 1038.46 202.206C1036.4 202.206 1034.73 203.559 1034.73 205.229C1034.73 206.898 1036.4 208.252 1038.46 208.252Z" fill="white"/>
<path d="M1232.73 381.966C1239.44 381.966 1244.88 377.563 1244.88 372.131C1244.88 366.699 1239.44 362.296 1232.73 362.296C1226.03 362.296 1220.59 366.699 1220.59 372.131C1220.59 377.563 1226.03 381.966 1232.73 381.966Z" fill="url(#paint0_linear_15_0)"/>
<path d="M1232.73 388.974C1244.22 388.974 1253.53 381.433 1253.53 372.131C1253.53 362.829 1244.22 355.288 1232.73 355.288C1221.25 355.288 1211.94 362.829 1211.94 372.131C1211.94 381.433 1221.25 388.974 1232.73 388.974Z" stroke="url(#paint1_linear_15_0)" stroke-miterlimit="10"/>
<path d="M968.905 856.819C968.905 863.395 962.313 868.735 954.194 868.735C946.075 868.735 939.483 863.395 939.483 856.819C939.483 850.242 946.075 844.903 954.194 844.903C962.313 844.903 968.905 850.223 968.905 856.819Z" stroke="url(#paint2_linear_15_0)" stroke-miterlimit="10"/>
<path d="M1291.38 425.233C1307.39 425.233 1320.37 414.721 1320.37 401.754C1320.37 388.787 1307.39 378.275 1291.38 378.275C1275.38 378.275 1262.4 388.787 1262.4 401.754C1262.4 414.721 1275.38 425.233 1291.38 425.233Z" fill="url(#paint3_linear_15_0)"/>
<path d="M473.287 656.21C473.287 662.217 467.276 667.086 459.86 667.086C452.444 667.086 446.434 662.217 446.434 656.21C446.434 650.203 452.444 645.335 459.86 645.335C467.276 645.335 473.287 650.203 473.287 656.21Z" fill="url(#paint4_linear_15_0)"/>
<path d="M1145.66 345.06L1167.27 324.192" stroke="url(#paint5_linear_15_0)" stroke-miterlimit="10"/>
<path d="M1152.3 349.555L1186.25 316.791" stroke="url(#paint6_linear_15_0)" stroke-miterlimit="10"/>
<path d="M1145.66 366.889L1180.53 333.203" stroke="url(#paint7_linear_15_0)" stroke-miterlimit="10"/>
<path d="M486.156 588.012L507.75 567.145" stroke="url(#paint8_linear_15_0)" stroke-miterlimit="10"/>
<path d="M492.772 592.527L526.727 559.744" stroke="url(#paint9_linear_15_0)" stroke-miterlimit="10"/>
<path d="M486.156 609.842L521.007 576.155" stroke="url(#paint10_linear_15_0)" stroke-miterlimit="10"/>
<path d="M1206.83 704.797L1234.41 678.138" stroke="url(#paint11_linear_15_0)" stroke-miterlimit="10"/>
<path d="M1215.28 710.549L1258.64 668.676" stroke="url(#paint12_linear_15_0)" stroke-miterlimit="10"/>
<path d="M1206.83 732.673L1251.37 689.661" stroke="url(#paint13_linear_15_0)" stroke-miterlimit="10"/>
<g opacity="0.5">
<path opacity="0.5" d="M1162.09 239.426L1129.71 268.656" stroke="url(#paint14_linear_15_0)" stroke-miterlimit="10"/>
<path opacity="0.5" d="M1171.37 246.179L1120.52 292.096" stroke="url(#paint15_linear_15_0)" stroke-miterlimit="10"/>
<path opacity="0.5" d="M1200.55 234.989L1148.3 282.162" stroke="url(#paint16_linear_15_0)" stroke-miterlimit="10"/>
</g>
<path d="M473.287 692.115L514.366 652.441" stroke="url(#paint17_linear_15_0)" stroke-miterlimit="10"/>
<path d="M485.889 700.674L550.429 638.366" stroke="url(#paint18_linear_15_0)" stroke-miterlimit="10"/>
<path d="M473.287 733.615L539.571 669.579" stroke="url(#paint19_linear_15_0)" stroke-miterlimit="10"/>
<path d="M550.429 606.073C554.886 606.073 558.499 603.146 558.499 599.536C558.499 595.925 554.886 592.999 550.429 592.999C545.972 592.999 542.358 595.925 542.358 599.536C542.358 603.146 545.972 606.073 550.429 606.073Z" fill="white"/>
<path d="M555.736 736.795C555.736 740.407 552.125 743.332 547.666 743.332C543.206 743.332 539.595 740.407 539.595 736.795C539.595 733.183 543.206 730.258 547.666 730.258C552.125 730.258 555.736 733.183 555.736 736.795Z" fill="white"/>
<path d="M513.469 419.756C513.469 421.424 511.797 422.779 509.737 422.779C507.677 422.779 506.005 421.424 506.005 419.756C506.005 418.087 507.677 416.732 509.737 416.732C511.797 416.752 513.469 418.087 513.469 419.756Z" fill="white"/>
<path d="M1229.1 507.133C1231.16 507.133 1232.83 505.779 1232.83 504.11C1232.83 502.44 1231.16 501.087 1229.1 501.087C1227.04 501.087 1225.37 502.44 1225.37 504.11C1225.37 505.779 1227.04 507.133 1229.1 507.133Z" fill="white"/>
<path d="M1266.11 776.214C1266.11 777.883 1264.43 779.237 1262.37 779.237C1260.31 779.237 1258.64 777.883 1258.64 776.214C1258.64 774.545 1260.31 773.191 1262.37 773.191C1264.43 773.211 1266.11 774.545 1266.11 776.214Z" fill="white"/>
<path d="M473.287 378.668C477.744 378.668 481.357 375.741 481.357 372.131C481.357 368.521 477.744 365.594 473.287 365.594C468.829 365.594 465.216 368.521 465.216 372.131C465.216 375.741 468.829 378.668 473.287 378.668Z" fill="white"/>
<path d="M693.031 806.819C693.031 810.431 689.42 813.356 684.96 813.356C680.501 813.356 676.89 810.431 676.89 806.819C676.89 803.207 680.501 800.281 684.96 800.281C689.42 800.281 693.031 803.207 693.031 806.819Z" fill="white"/>
<path d="M1214.9 802.873C1214.9 806.485 1211.29 809.41 1206.83 809.41C1202.37 809.41 1198.76 806.485 1198.76 802.873C1198.76 799.261 1202.37 796.336 1206.83 796.336C1211.29 796.336 1214.9 799.261 1214.9 802.873Z" fill="white"/>
<path d="M1353.06 609.842C1353.06 613.454 1349.45 616.379 1344.99 616.379C1340.53 616.379 1336.92 613.454 1336.92 609.842C1336.92 606.23 1340.53 603.305 1344.99 603.305C1349.45 603.285 1353.06 606.23 1353.06 609.842Z" fill="white"/>
<path d="M383.009 520.207C387.466 520.207 391.079 517.28 391.079 513.67C391.079 510.06 387.466 507.133 383.009 507.133C378.552 507.133 374.938 510.06 374.938 513.67C374.938 517.28 378.552 520.207 383.009 520.207Z" fill="white"/>
<path d="M611.26 813.493L633.556 820.835L643.59 792.763L611.26 813.493Z" fill="#FF7E3D"/>
<path d="M550.429 790.054L568.557 827.549L638.138 778.197L550.429 790.054Z" fill="url(#paint20_linear_15_0)"/>
<path d="M1335.83 481.357L1326.11 520.855L1246.91 482.162L1335.83 481.357Z" fill="#FF7E3D"/>
<path d="M536.032 331.161L506.537 347.906L542.018 362.767L536.032 331.161Z" fill="#FF7E3D"/>
<path d="M1258.84 547.671L1225.32 537.011L1229.63 569.167L1258.84 547.671Z" fill="url(#paint21_linear_15_0)"/>
<path d="M951.698 261.53C919.102 246.846 878.725 237.188 841.693 245.786C812.949 252.461 791.259 269.854 774.875 289.445C756.432 311.491 743.442 336.206 729.676 360.293C721.242 375.036 712.057 389.21 699.745 402.127C686.512 416.026 670.759 428.354 653.188 438.601C635.012 449.182 614.993 457.447 593.763 463.16C569.551 469.677 544.395 473.289 519.553 477.843C478.716 485.362 435.407 497.043 408.675 524.879C396.848 537.188 389.82 552.107 389.505 567.753C389.165 583.811 395.515 599.634 405.524 613.376C428.233 644.608 467.713 662.472 508.914 673.917C553.022 686.167 599.579 691.997 642.767 706.524C664.337 713.788 684.985 723.309 702.096 736.324C719.061 749.241 732.172 764.966 743.83 781.181C765.811 811.805 783.503 845.197 815.179 870.384C829.793 882.005 847.267 891.408 866.995 896.198C886.82 900.988 908.002 900.988 928.141 897.514C1022.78 881.161 1064.9 803.913 1103.05 740.486C1124.38 705.032 1148.03 670.521 1183.97 643.332C1218.68 617.086 1260.1 597.062 1292.45 568.715C1321.19 543.548 1342.81 511.314 1337.75 476.037C1332.92 442.508 1307.16 412.845 1275.56 391.86C1239.16 367.694 1194.13 353.56 1150.41 340.564C1126.95 333.595 1103.2 327.098 1080.41 318.735C1057.92 310.47 1036.3 300.792 1014.95 290.78C1004.75 285.99 994.62 281.122 984.441 276.293C973.632 271.169 962.411 266.732 951.48 261.805C950.632 261.412 949.857 262.473 950.705 262.865C961.611 267.773 971.984 273.485 982.744 278.609C992.923 283.438 1003.05 288.307 1013.26 293.097C1034.12 302.893 1055.26 312.355 1077.19 320.482C1120.69 336.619 1167.18 346.728 1210.56 363.14C1251.01 378.432 1289.06 398.966 1313.34 430.023C1324.49 444.275 1332.44 460.372 1334.62 477.215C1336.9 494.785 1332.54 512.355 1323.28 528.275C1303.89 561.628 1267.76 585.421 1232.59 607.545C1213.93 619.284 1195.07 630.925 1178.03 644.216C1161.55 657.054 1147.38 671.561 1135.07 687.148C1109.96 718.931 1092.39 754.031 1070.84 787.384C1049.8 819.932 1024.07 852.52 986.21 873.839C951.238 893.529 905.166 904.09 863.699 892.547C822.886 881.181 795.912 851.086 775.36 821.954C753.548 791.016 735.42 757.074 702.144 732.771C669.281 708.782 626.069 697.435 584.141 688.366C539.838 678.786 493.572 670.933 454.505 650.478C420.042 632.437 391.395 601.224 392.752 566.693C394.109 531.711 429.009 507.113 465.944 493.921C510.271 478.079 560.002 476.685 605.081 462.63C642.84 450.851 676.309 430.553 701.199 404.758C723.302 381.868 735.759 354.601 751.294 328.688C764.696 306.328 779.892 283.399 802.892 266.477C826.643 248.986 857.131 242.39 888.734 245.963C910.522 248.417 931.244 254.699 950.511 263.199C951.82 263.729 952.983 262.119 951.698 261.53Z" fill="url(#paint22_linear_15_0)"/>
<g opacity="0.4248">
<path opacity="0.4248" d="M964.301 204.679C927.027 187.895 880.834 176.862 838.494 186.717C805.655 194.353 780.862 214.239 762.152 236.619C741.042 261.864 726.186 290.152 710.409 317.714C700.739 334.616 690.22 350.831 676.139 365.633C660.992 381.554 642.937 395.708 622.773 407.427C601.954 419.559 579.003 429.021 554.695 435.558C526.993 443.018 498.177 447.141 469.749 452.382C423.047 460.98 373.485 474.33 342.9 506.171C329.4 520.227 321.403 537.266 321.015 555.13C320.627 573.485 327.898 591.546 339.313 607.251C365.269 642.959 410.42 663.395 457.534 676.469C508.041 690.486 561.335 697.16 610.776 713.788C635.52 722.111 659.199 733.026 678.805 747.946C698.242 762.728 713.268 780.749 726.622 799.339C751.755 834.381 772.016 872.602 808.272 901.42C824.97 914.71 844.916 925.448 867.48 930.925C890.14 936.402 914.327 936.402 937.351 932.437C1045.61 913.729 1093.79 825.331 1137.44 752.755C1161.87 712.158 1188.94 672.622 1230.14 641.487C1269.89 611.452 1317.29 588.523 1354.32 556.073C1387.19 527.294 1411.91 490.447 1406.09 450.105C1400.57 411.785 1371.1 377.863 1334.96 353.874C1293.32 326.234 1241.8 310.058 1191.8 295.197C1164.92 287.208 1137.71 279.767 1111.61 270.187C1085.87 260.725 1061.1 249.654 1036.67 238.169C1024.99 232.692 1013.38 227.117 1001.74 221.581C989.385 215.712 976.588 210.549 964.083 204.915C963.235 204.522 962.459 205.582 963.307 205.975C975.789 211.589 987.737 218.048 1000.07 223.898C1011.71 229.434 1023.34 234.989 1035 240.486C1058.87 251.695 1083.06 262.531 1108.16 271.836C1157.97 290.309 1211.19 301.872 1260.85 320.659C1307.19 338.189 1350.76 361.707 1378.61 397.278C1391.38 413.611 1400.49 432.084 1402.99 451.401C1405.61 471.562 1400.59 491.683 1389.95 509.96C1367.73 548.161 1326.36 575.409 1286.1 600.753C1264.73 614.2 1243.16 627.51 1223.65 642.724C1204.79 657.408 1188.58 674.015 1174.5 691.84C1145.75 728.236 1125.64 768.421 1100.97 806.603C1076.85 843.902 1047.38 881.22 1004 905.641C963.913 928.197 911.08 940.309 863.554 927.058C816.779 914.023 785.83 879.551 762.273 846.139C737.31 810.745 716.564 771.895 678.49 744.078C640.901 716.634 591.46 703.658 543.498 693.293C492.773 682.319 439.769 673.309 395.055 649.909C355.551 629.237 322.711 593.43 324.238 553.835C325.789 513.729 365.802 485.5 408.142 470.364C458.891 452.225 515.869 450.635 567.491 434.518C610.655 421.051 648.947 397.808 677.424 368.323C702.726 342.115 716.976 310.922 734.741 281.279C750.107 255.661 767.508 229.414 793.852 210.019C821.117 189.956 856.065 182.398 892.345 186.52C917.308 189.347 941.035 196.532 963.089 206.289C964.446 206.858 965.61 205.248 964.301 204.679Z" fill="url(#paint23_linear_15_0)"/>
</g>
<path d="M1139.72 648.593C1168.27 623.603 1204.38 605.661 1235.55 583.046C1262.71 563.336 1287.68 538.287 1293.78 508.35C1299.65 479.453 1285.79 451.028 1263.42 428.825C1238.5 404.09 1203.82 388.032 1168.1 375.547C1129.05 361.903 1087.83 352.618 1049.54 337.541C1011.39 322.504 976.346 303.03 938.756 287.227C910.279 275.252 875.307 267.93 843.631 275.331C819.25 281.024 800.347 295.237 785.854 311.609C769.301 330.297 757.643 351.538 745.841 372.327C739.079 384.263 732.463 396.238 723.568 407.27C713.607 419.599 701.562 430.808 687.918 440.545C673.934 450.537 658.229 458.939 641.409 465.437C622.045 472.916 601.227 477.294 580.36 481.043C542.407 487.855 502.854 493.352 470.984 512.708C457.582 520.855 445.997 531.22 439.236 543.764C432.474 556.289 431.117 570.168 434.534 583.517C441.877 612.139 467.81 635.186 498.419 649.398C567.588 681.534 659.441 676.018 718.866 722.936C747.707 745.708 763.339 776.371 783.454 804.031C801.316 828.609 824.316 853.05 857.93 864.102C892.224 875.39 931.292 869.5 962.871 855.327C997.019 840.015 1022.03 814.73 1041.66 787.953C1046.6 781.2 1051.26 774.33 1055.72 767.361C1060.32 760.195 1063.86 752.696 1068.2 745.433C1068.61 744.726 1067.33 744.098 1066.89 744.805C1062.6 752.009 1057.41 758.9 1052.86 765.986C1048.28 773.112 1043.53 780.18 1038.44 787.09C1028.43 800.694 1017.21 813.749 1003.93 825.39C978.309 847.847 943.773 864.73 905.505 867.125C887.11 868.283 868.546 865.751 851.993 859.037C835.827 852.48 822.207 842.567 810.671 831.397C786.363 807.859 771.821 779.237 752.045 753.305C742.205 740.407 730.96 728.079 717.025 717.891C703.016 707.643 686.609 699.791 669.401 693.646C634.042 681.004 595.871 675.311 558.984 666.418C522.243 657.565 484.896 644.903 460.248 620.089C437.927 597.612 427.336 566.281 445.367 539.76C462.865 514.023 498.419 500.321 531.961 492.842C571.199 484.086 612.327 480.769 648.922 465.398C679.799 452.441 706.482 432.987 725.677 409.508C742.06 389.485 752.166 366.36 765.447 344.962C777.177 326.096 790.725 306.976 810.695 292.999C831.392 278.511 857.543 273.034 884.517 275.782C924.772 279.866 958.799 299.32 992.996 315.496C1011 324.016 1029.16 332.378 1047.94 339.76C1066.04 346.886 1084.7 352.677 1103.61 358.232C1173.94 378.982 1259.73 402.952 1286.2 466.36C1292.04 480.337 1293.76 495.295 1290.34 509.822C1286.85 524.624 1278.54 538.366 1267.85 550.615C1245.02 576.842 1212.45 595.413 1181.82 615.123C1166.38 625.056 1151.35 635.421 1138.09 647.258C1137.1 648.162 1138.72 649.477 1139.72 648.593Z" fill="url(#paint24_linear_15_0)"/>
<defs>
<linearGradient id="paint0_linear_15_0" x1="1220.6" y1="372.139" x2="1244.86" y2="372.139" gradientUnits="userSpaceOnUse">
<stop offset="0.0277" stop-color="#FFD24D"/>
<stop offset="0.7154" stop-color="#F6BE56"/>
<stop offset="1" stop-color="#F2B45A"/>
</linearGradient>
<linearGradient id="paint1_linear_15_0" x1="1210.72" y1="372.139" x2="1254.74" y2="372.139" gradientUnits="userSpaceOnUse">
<stop offset="0.0277" stop-color="#FFD24D"/>
<stop offset="0.7154" stop-color="#F6BE56"/>
<stop offset="1" stop-color="#F2B45A"/>
</linearGradient>
<linearGradient id="paint2_linear_15_0" x1="938.264" y1="856.811" x2="970.105" y2="856.811" gradientUnits="userSpaceOnUse">
<stop offset="0.0277" stop-color="#FFD24D"/>
<stop offset="0.7154" stop-color="#F6BE56"/>
<stop offset="1" stop-color="#F2B45A"/>
</linearGradient>
<linearGradient id="paint3_linear_15_0" x1="1262.39" y1="401.763" x2="1320.37" y2="401.763" gradientUnits="userSpaceOnUse">
<stop offset="0.0277" stop-color="#FFD24D"/>
<stop offset="0.7154" stop-color="#F6BE56"/>
<stop offset="1" stop-color="#F2B45A"/>
</linearGradient>
<linearGradient id="paint4_linear_15_0" x1="446.452" y1="656.204" x2="473.285" y2="656.204" gradientUnits="userSpaceOnUse">
<stop offset="0.0277" stop-color="#FFD24D"/>
<stop offset="0.7154" stop-color="#F6BE56"/>
<stop offset="1" stop-color="#F2B45A"/>
</linearGradient>
<linearGradient id="paint5_linear_15_0" x1="1143.78" y1="335.524" x2="1169.06" y2="332.789" gradientUnits="userSpaceOnUse">
<stop offset="0.0277" stop-color="#FFD24D"/>
<stop offset="0.7154" stop-color="#F6BE56"/>
<stop offset="1" stop-color="#F2B45A"/>
</linearGradient>
<linearGradient id="paint6_linear_15_0" x1="1149.82" y1="334.554" x2="1188.57" y2="330.361" gradientUnits="userSpaceOnUse">
<stop offset="0.0277" stop-color="#FFD24D"/>
<stop offset="0.7154" stop-color="#F6BE56"/>
<stop offset="1" stop-color="#F2B45A"/>
</linearGradient>
<linearGradient id="paint7_linear_15_0" x1="1143.14" y1="351.461" x2="1182.91" y2="347.159" gradientUnits="userSpaceOnUse">
<stop offset="0.0277" stop-color="#FFD24D"/>
<stop offset="0.7154" stop-color="#F6BE56"/>
<stop offset="1" stop-color="#F2B45A"/>
</linearGradient>
<linearGradient id="paint8_linear_15_0" x1="485.217" y1="577.579" x2="508.679" y2="577.579" gradientUnits="userSpaceOnUse">
<stop offset="0.0277" stop-color="#FFD24D"/>
<stop offset="0.1674" stop-color="#EBC34D"/>
<stop offset="0.4544" stop-color="#B69D4D"/>
<stop offset="0.8604" stop-color="#625F4E"/>
<stop offset="1" stop-color="#44494E"/>
</linearGradient>
<linearGradient id="paint9_linear_15_0" x1="491.851" y1="576.129" x2="527.651" y2="576.129" gradientUnits="userSpaceOnUse">
<stop offset="0.0277" stop-color="#FFD24D"/>
<stop offset="0.1674" stop-color="#EBC34D"/>
<stop offset="0.4544" stop-color="#B69D4D"/>
<stop offset="0.8604" stop-color="#625F4E"/>
<stop offset="1" stop-color="#44494E"/>
</linearGradient>
<linearGradient id="paint10_linear_15_0" x1="485.217" y1="593" x2="521.947" y2="593" gradientUnits="userSpaceOnUse">
<stop offset="0.0277" stop-color="#FFD24D"/>
<stop offset="0.1674" stop-color="#EBC34D"/>
<stop offset="0.4544" stop-color="#B69D4D"/>
<stop offset="0.8604" stop-color="#625F4E"/>
<stop offset="1" stop-color="#44494E"/>
</linearGradient>
<linearGradient id="paint11_linear_15_0" x1="1204.64" y1="692.603" x2="1236.47" y2="689.159" gradientUnits="userSpaceOnUse">
<stop offset="0.0277" stop-color="#FFD24D"/>
<stop offset="0.7154" stop-color="#F6BE56"/>
<stop offset="1" stop-color="#F2B45A"/>
</linearGradient>
<linearGradient id="paint12_linear_15_0" x1="1212.35" y1="691.364" x2="1261.39" y2="686.059" gradientUnits="userSpaceOnUse">
<stop offset="0.0277" stop-color="#FFD24D"/>
<stop offset="0.7154" stop-color="#F6BE56"/>
<stop offset="1" stop-color="#F2B45A"/>
</linearGradient>
<linearGradient id="paint13_linear_15_0" x1="1203.82" y1="712.961" x2="1254.16" y2="707.516" gradientUnits="userSpaceOnUse">
<stop offset="0.0277" stop-color="#FFD24D"/>
<stop offset="0.7154" stop-color="#F6BE56"/>
<stop offset="1" stop-color="#F2B45A"/>
</linearGradient>
<linearGradient id="paint14_linear_15_0" x1="1144.92" y1="239.492" x2="1146.2" y2="268.631" gradientUnits="userSpaceOnUse">
<stop offset="0.0277" stop-color="#FFD24D"/>
<stop offset="0.7154" stop-color="#F6BE56"/>
<stop offset="1" stop-color="#F2B45A"/>
</linearGradient>
<linearGradient id="paint15_linear_15_0" x1="1144.44" y1="246.675" x2="1146.42" y2="291.663" gradientUnits="userSpaceOnUse">
<stop offset="0.0277" stop-color="#FFD24D"/>
<stop offset="0.7154" stop-color="#F6BE56"/>
<stop offset="1" stop-color="#F2B45A"/>
</linearGradient>
<linearGradient id="paint16_linear_15_0" x1="1172.88" y1="235.513" x2="1174.91" y2="281.696" gradientUnits="userSpaceOnUse">
<stop offset="0.0277" stop-color="#FFD24D"/>
<stop offset="0.7154" stop-color="#F6BE56"/>
<stop offset="1" stop-color="#F2B45A"/>
</linearGradient>
<linearGradient id="paint17_linear_15_0" x1="470.459" y1="673.937" x2="516.998" y2="668.902" gradientUnits="userSpaceOnUse">
<stop offset="0.0277" stop-color="#FFD24D"/>
<stop offset="0.1674" stop-color="#EBC34D"/>
<stop offset="0.4544" stop-color="#B69D4D"/>
<stop offset="0.8604" stop-color="#625F4E"/>
<stop offset="1" stop-color="#44494E"/>
</linearGradient>
<linearGradient id="paint18_linear_15_0" x1="481.945" y1="672.094" x2="554.09" y2="664.288" gradientUnits="userSpaceOnUse">
<stop offset="0.0277" stop-color="#FFD24D"/>
<stop offset="0.1674" stop-color="#EBC34D"/>
<stop offset="0.4544" stop-color="#B69D4D"/>
<stop offset="0.8604" stop-color="#625F4E"/>
<stop offset="1" stop-color="#44494E"/>
</linearGradient>
<linearGradient id="paint19_linear_15_0" x1="469.248" y1="704.235" x2="543.324" y2="696.221" gradientUnits="userSpaceOnUse">
<stop offset="0.0277" stop-color="#FFD24D"/>
<stop offset="0.1674" stop-color="#EBC34D"/>
<stop offset="0.4544" stop-color="#B69D4D"/>
<stop offset="0.8604" stop-color="#625F4E"/>
<stop offset="1" stop-color="#44494E"/>
</linearGradient>
<linearGradient id="paint20_linear_15_0" x1="550.426" y1="802.875" x2="638.138" y2="802.875" gradientUnits="userSpaceOnUse">
<stop offset="0.0277" stop-color="#FFD24D"/>
<stop offset="0.7154" stop-color="#FFBE56"/>
<stop offset="1" stop-color="#FFB45A"/>
</linearGradient>
<linearGradient id="paint21_linear_15_0" x1="1221.23" y1="540.443" x2="1240.34" y2="563.2" gradientUnits="userSpaceOnUse">
<stop offset="0.0277" stop-color="#FFD24D"/>
<stop offset="0.7154" stop-color="#F6BE56"/>
<stop offset="1" stop-color="#F2B45A"/>
</linearGradient>
<linearGradient id="paint22_linear_15_0" x1="443.279" y1="702.448" x2="1275.14" y2="328.654" gradientUnits="userSpaceOnUse">
<stop offset="0.0277" stop-color="#FFD24D"/>
<stop offset="0.0356" stop-color="#F7CC4C"/>
<stop offset="0.0797" stop-color="#CEAE4A"/>
<stop offset="0.1292" stop-color="#A89348"/>
<stop offset="0.1831" stop-color="#887B45"/>
<stop offset="0.2427" stop-color="#6C6744"/>
<stop offset="0.3099" stop-color="#565742"/>
<stop offset="0.3884" stop-color="#454B41"/>
<stop offset="0.4856" stop-color="#3A4241"/>
<stop offset="0.6218" stop-color="#333D40"/>
<stop offset="1" stop-color="#313C40"/>
</linearGradient>
<linearGradient id="paint23_linear_15_0" x1="321.012" y1="559.13" x2="1406.96" y2="559.13" gradientUnits="userSpaceOnUse">
<stop stop-color="#5C5A44"/>
<stop offset="0.6103" stop-color="#3F4541"/>
<stop offset="1" stop-color="#313C40"/>
</linearGradient>
<linearGradient id="paint24_linear_15_0" x1="657.187" y1="360.465" x2="1023.38" y2="812.557" gradientUnits="userSpaceOnUse">
<stop stop-color="#313C40"/>
<stop offset="0.251" stop-color="#333E40"/>
<stop offset="0.397" stop-color="#3C4441"/>
<stop offset="0.5161" stop-color="#4A4E42"/>
<stop offset="0.6208" stop-color="#5E5D43"/>
<stop offset="0.716" stop-color="#786F44"/>
<stop offset="0.8042" stop-color="#988746"/>
<stop offset="0.8873" stop-color="#BDA249"/>
<stop offset="0.964" stop-color="#E8C14C"/>
<stop offset="1" stop-color="#FFD24D"/>
</linearGradient>
</defs>
</svg>
